<svg xmlns="http://www.w3.org/2000/svg" width="18.195" height="18.195" viewBox="0 0 18.195 18.195">
  <path id="Icon_metro-copyright" data-name="Icon metro-copyright" d="M18.392,15.613V16.9a1.5,1.5,0,0,1-.432,1.054,2.873,2.873,0,0,1-1.113.717,8.142,8.142,0,0,1-1.4.385,7.776,7.776,0,0,1-1.392.13A5.476,5.476,0,0,1,10,17.544a5.6,5.6,0,0,1-1.629-4.1A5.5,5.5,0,0,1,14,7.818a8.359,8.359,0,0,1,.894.053,7.643,7.643,0,0,1,1.1.213,5.651,5.651,0,0,1,1.1.4,2.359,2.359,0,0,1,.817.669,1.523,1.523,0,0,1,.332.959v1.291a.168.168,0,0,1-.19.19h-1.4a.168.168,0,0,1-.19-.19v-.829q0-.509-.776-.8a4.611,4.611,0,0,0-1.629-.29,3.6,3.6,0,0,0-2.707,1.084A3.877,3.877,0,0,0,10.3,13.386a4.172,4.172,0,0,0,1.084,2.955,3.609,3.609,0,0,0,2.766,1.167,5.019,5.019,0,0,0,1.635-.284q.829-.284.829-.782v-.829a.184.184,0,0,1,.053-.136.17.17,0,0,1,.124-.053H18.2a.191.191,0,0,1,.13.053.175.175,0,0,1,.059.136Zm-4.525-9.69a7.369,7.369,0,0,0-2.944.6A7.476,7.476,0,0,0,6.89,10.561a7.473,7.473,0,0,0,0,5.887,7.476,7.476,0,0,0,4.033,4.033,7.473,7.473,0,0,0,5.887,0,7.476,7.476,0,0,0,4.033-4.033,7.473,7.473,0,0,0,0-5.887,7.476,7.476,0,0,0-4.033-4.033,7.369,7.369,0,0,0-2.944-.6Zm9.1,7.581a8.9,8.9,0,0,1-1.22,4.566,9.056,9.056,0,0,1-3.311,3.311,9.156,9.156,0,0,1-9.133,0A9.056,9.056,0,0,1,5.99,18.071,8.9,8.9,0,0,1,4.77,13.5,8.9,8.9,0,0,1,5.99,8.938,9.056,9.056,0,0,1,9.3,5.627a9.156,9.156,0,0,1,9.133,0,9.056,9.056,0,0,1,3.311,3.311A8.9,8.9,0,0,1,22.965,13.5Z" transform="translate(-4.77 -4.407)" fill="#fff"/>
</svg>
