<svg xmlns="http://www.w3.org/2000/svg" width="42" height="40" viewBox="0 0 42 40">
  <g id="Grupo_104" data-name="Grupo 104" transform="translate(-258 -2259)">
    <path id="Icon_awesome-instagram" data-name="Icon awesome-instagram" d="M10.818,7.509a5.548,5.548,0,1,0,5.548,5.548A5.539,5.539,0,0,0,10.818,7.509Zm0,9.154a3.607,3.607,0,1,1,3.607-3.607A3.613,3.613,0,0,1,10.818,16.663Zm7.068-9.381a1.294,1.294,0,1,1-1.294-1.294A1.291,1.291,0,0,1,17.887,7.282ZM21.561,8.6a6.4,6.4,0,0,0-1.748-4.534,6.446,6.446,0,0,0-4.534-1.748c-1.786-.1-7.141-.1-8.927,0A6.436,6.436,0,0,0,1.819,4.057,6.424,6.424,0,0,0,.071,8.59c-.1,1.786-.1,7.141,0,8.927a6.4,6.4,0,0,0,1.748,4.534A6.454,6.454,0,0,0,6.352,23.8c1.786.1,7.141.1,8.927,0a6.4,6.4,0,0,0,4.534-1.748,6.446,6.446,0,0,0,1.748-4.534c.1-1.786.1-7.136,0-8.922ZM19.253,19.434A3.651,3.651,0,0,1,17.2,21.491c-1.424.565-4.8.435-6.378.435s-4.959.126-6.378-.435a3.651,3.651,0,0,1-2.057-2.057c-.565-1.424-.435-4.8-.435-6.378S1.823,8.1,2.383,6.678A3.651,3.651,0,0,1,4.44,4.622c1.424-.565,4.8-.435,6.378-.435s4.959-.126,6.378.435a3.651,3.651,0,0,1,2.057,2.057c.565,1.424.435,4.8.435,6.378S19.818,18.015,19.253,19.434Z" transform="translate(267.229 2265.86)" fill="#fff"/>
    <g id="Elipse_9" data-name="Elipse 9" transform="translate(258 2259)" fill="none" stroke="#fff" stroke-width="1">
      <ellipse cx="21" cy="20" rx="21" ry="20" stroke="none"/>
      <ellipse cx="21" cy="20" rx="20.5" ry="19.5" fill="none"/>
    </g>
  </g>
</svg>
