<svg xmlns="http://www.w3.org/2000/svg" width="39" height="40" viewBox="0 0 39 40">
  <g id="Grupo_105" data-name="Grupo 105" transform="translate(-306 -2259)">
    <path id="Icon_awesome-linkedin-in" data-name="Icon awesome-linkedin-in" d="M4.842,21.63H.357V7.189H4.842ZM2.6,5.219A2.609,2.609,0,1,1,5.194,2.6,2.619,2.619,0,0,1,2.6,5.219ZM21.625,21.63H17.151V14.6c0-1.675-.034-3.824-2.332-3.824-2.332,0-2.689,1.82-2.689,3.7v7.15H7.651V7.189h4.3v1.97h.063a4.712,4.712,0,0,1,4.243-2.332c4.538,0,5.373,2.989,5.373,6.87V21.63Z" transform="translate(314.609 2266.556)" fill="#fff"/>
    <g id="Elipse_10" data-name="Elipse 10" transform="translate(306 2259)" fill="none" stroke="#fff" stroke-width="1">
      <ellipse cx="19.5" cy="20" rx="19.5" ry="20" stroke="none"/>
      <ellipse cx="19.5" cy="20" rx="19" ry="19.5" fill="none"/>
    </g>
  </g>
</svg>
