<svg id="Grupo_33" data-name="Grupo 33" xmlns="http://www.w3.org/2000/svg" xmlns:xlink="http://www.w3.org/1999/xlink" width="156.886" height="79.273" viewBox="0 0 156.886 79.273">
  <defs>
    <clipPath id="clip-path">
      <rect id="Ret창ngulo_21" data-name="Ret창ngulo 21" width="156.886" height="79.273" fill="none"/>
    </clipPath>
  </defs>
  <path id="Caminho_3" data-name="Caminho 3" d="M3.492,119.776V62.52H41.471v57.256L22.479,125.97ZM0,59.031v63.278l22.479,7.334,22.482-7.334V59.031Z" transform="translate(0 -50.369)" fill="#a80000"/>
  <g id="Grupo_32" data-name="Grupo 32">
    <g id="Grupo_31" data-name="Grupo 31" clip-path="url(#clip-path)">
      <path id="Caminho_4" data-name="Caminho 4" d="M93.38,146.485l0,.006c.644.395,1.455.9,2.368,1.409a.136.136,0,0,0,.027-.019c.467.266.954.516,1.433.751,3.548,1.8,6.894,3.5,6.894,7.036a4.824,4.824,0,0,1-.683,2.516c1.01.653,1.9,1.242,2.528,1.686a8.441,8.441,0,0,0,2.509-6.055,7.673,7.673,0,0,0-2.209-5.508,15.445,15.445,0,0,0-2.5-2.019c.018.008-.033,0,0,0a38.571,38.571,0,0,0-3.707-1.992c-3.39-1.673-6.591-3.227-6.591-6.566a4.588,4.588,0,0,1,4.926-4.65c4.321,0,5.77,3.539,6.219,6.5l.044.262h2.094l.147-7.286-.211-.071a26.935,26.935,0,0,0-7.9-1.466c-5.761,0-9.631,3.484-9.631,8.649,0,3.251,1.831,5.238,4.238,6.817" transform="translate(-76.062 -111.796)" fill="#a80000"/>
      <path id="Caminho_5" data-name="Caminho 5" d="M101.215,267.207a7.748,7.748,0,0,0-2.6-5.912c-.715-.5-2.458-1.7-4.4-2.889-.486-.253-.953-.5-1.41-.728-3.392-1.653-6.609-3.237-6.609-6.56a4.68,4.68,0,0,1,.806-2.676c-1.075-.629-1.965-1.18-2.467-1.492a7.821,7.821,0,0,0-2.53,4.943H82v.015a11.209,11.209,0,0,0-.1,1.154c0,4.865,4.1,6.945,8.066,8.967,3.547,1.784,6.881,3.5,6.881,7.029,0,3.113-2.531,5.277-6.171,5.277-4.417,0-5.9-2.722-7.087-7.747l-.068-.229H81.379l.441,8.143.175.074a21.413,21.413,0,0,0,8.182,1.915c6.4,0,11.038-3.9,11.038-9.285" transform="translate(-69.438 -210.715)" fill="#a80000"/>
      <rect id="Ret창ngulo_20" data-name="Ret창ngulo 20" width="44.987" height="3.417" transform="translate(0.076)" fill="#a80000"/>
      <path id="Caminho_6" data-name="Caminho 6" d="M440.488,192.227c-2.3,0-2.952-1.6-3.454-3.738h-.741l.186,3.566a9.743,9.743,0,0,0,3.779.882c3.016,0,5.015-1.811,5.015-4.194,0-4.579-7.024-4.019-7.024-7.535a2.286,2.286,0,0,1,2.453-2.319c1.9,0,2.783,1.369,3.055,3.165h.716l.063-3.165a12.484,12.484,0,0,0-3.644-.675c-2.473,0-4.374,1.408-4.374,3.9,0,4.222,7.005,3.855,7.005,7.488a2.743,2.743,0,0,1-3.035,2.623" transform="translate(-372.276 -152.064)" fill="#fff"/>
      <path id="Caminho_7" data-name="Caminho 7" d="M514.259,193.887l-2.005-.523V181.213l2.005-.533v-.465h-5.97v.465l2.01.533v12.152l-2.01.523v.462h5.97Z" transform="translate(-433.708 -153.772)" fill="#fff"/>
      <path id="Caminho_8" data-name="Caminho 8" d="M571.254,190.112h-.48l-1.357,3.457h-4.951V181.212l2.148-.533v-.465h-6.12v.465l2.008.533v12.152l-2.008.524v.461h10.578Z" transform="translate(-478.253 -153.771)" fill="#fff"/>
      <path id="Caminho_9" data-name="Caminho 9" d="M642.548,180.22H637.6v.441l2.151.527L635.8,191.572l-3.949-10.355,2.254-.533v-.463h-6.052v.463l1.8.533,5.09,13.329h.607l5.211-13.291,1.791-.594Z" transform="translate(-535.901 -153.777)" fill="#fff"/>
      <path id="Caminho_10" data-name="Caminho 10" d="M746.965,190.115h-.482l-1.353,3.457h-4.957V187.33h2.976l.735,2.089h.467v-4.942h-.467l-.735,2.092h-2.976V181h4.894l1.012,2.868h.553v-3.649H736.2v.463l2.006.534v12.152l-2.006.523v.462H746.78Z" transform="translate(-628.182 -153.775)" fill="#fff"/>
      <path id="Caminho_11" data-name="Caminho 11" d="M829.169,193.887l-2-.523V181.213l2-.533v-.465H823.2v.465l2.01.533v12.152l-2.01.523v.462h5.969Z" transform="translate(-702.412 -153.772)" fill="#fff"/>
      <path id="Caminho_12" data-name="Caminho 12" d="M886.745,192.983l-2.115-3.629a3.586,3.586,0,0,0-2.742-1.839c3.209-.485,4.435-1.959,4.435-3.8,0-2.612-2.128-3.5-5.255-3.5h-5.7v.465l2.01.533v12.152l-2.01.523v.462h6.039v-.462l-2.069-.523v-5.634h.761a1.951,1.951,0,0,1,1.9,1.158l2.656,4.621a2.013,2.013,0,0,0,1.961,1.135,6.837,6.837,0,0,0,1.963-.3v-.462a1.765,1.765,0,0,1-1.833-.905M880.9,186.99h-1.564v-5.908a9.927,9.927,0,0,1,1.688-.167c2.051,0,3.233.971,3.233,2.719a3.182,3.182,0,0,1-3.356,3.356" transform="translate(-746.924 -153.773)" fill="#fff"/>
      <path id="Caminho_13" data-name="Caminho 13" d="M983.193,191.715l-5.1-13.5h-.621l-5.249,13.459-1.75.527v.442h4.849V192.2l-2.071-.506,1.541-4.117h4.834l1.563,4.1-2.172.507v.462h5.947v-.462Zm-8.1-4.916,2.133-5.608,2.1,5.608Z" transform="translate(-828.075 -152.067)" fill="#fff"/>
      <path id="Caminho_14" data-name="Caminho 14" d="M440.259,335.449c3.016,0,5.015-1.811,5.015-4.2,0-4.58-7.024-4.012-7.024-7.534A2.283,2.283,0,0,1,440.7,321.4c1.9,0,2.783,1.366,3.055,3.164h.716l.063-3.164a12.479,12.479,0,0,0-3.644-.679c-2.473,0-4.374,1.414-4.374,3.906,0,4.222,7.005,3.858,7.005,7.486a2.744,2.744,0,0,1-3.035,2.623c-2.3,0-2.952-1.6-3.455-3.743h-.741l.186,3.572a9.807,9.807,0,0,0,3.779.883" transform="translate(-372.277 -273.663)" fill="#fff"/>
      <path id="Caminho_15" data-name="Caminho 15" d="M525.674,328.111c0-4.2-2.068-7.385-6.793-7.385-4.608,0-6.964,3.21-6.964,7.319,0,4.2,2.067,7.407,6.794,7.407,4.6,0,6.962-3.223,6.962-7.34m-11.668-.066c0-3.84,1.685-6.6,4.58-6.6,3.16,0,5,2.22,5,6.668,0,3.841-1.688,6.629-4.582,6.629-3.161,0-4.994-2.237-4.994-6.7" transform="translate(-436.805 -273.666)" fill="#fff"/>
      <path id="Caminho_16" data-name="Caminho 16" d="M616.164,320.724h-.61l-5.253,13.46-1.749.529v.442H613.4v-.442l-2.068-.506,1.544-4.117H617.7l1.564,4.094-2.173.507v.464h5.949v-.464l-1.771-.466Zm-3,8.582L615.3,323.7l2.108,5.609Z" transform="translate(-519.259 -273.664)" fill="#fff"/>
      <path id="Caminho_17" data-name="Caminho 17" d="M730.6,336.861V336.4a1.775,1.775,0,0,1-1.836-.9l-2.1-3.635a3.621,3.621,0,0,0-2.746-1.839c3.208-.483,4.43-1.958,4.43-3.8,0-2.611-2.127-3.5-5.26-3.5H717.4v.466l2,.532v12.149l-2,.526v.463h6.037V336.4l-2.072-.526V330.24h.755a1.943,1.943,0,0,1,1.9,1.158l2.659,4.621a2.014,2.014,0,0,0,1.962,1.139,6.8,6.8,0,0,0,1.963-.3m-7.681-7.359h-1.557v-5.91a10.041,10.041,0,0,1,1.686-.166c2.042,0,3.226.968,3.226,2.72a3.179,3.179,0,0,1-3.355,3.356" transform="translate(-612.136 -275.371)" fill="#fff"/>
      <path id="Caminho_18" data-name="Caminho 18" d="M825.317,332.625h-.484l-1.359,3.46h-4.953v-6.244H821.5l.736,2.087h.465v-4.937h-.465l-.736,2.087h-2.976v-5.566h4.892l1.016,2.867h.55v-3.651H814.55v.465l2.01.533v12.149l-2.01.526v.463h10.578Z" transform="translate(-695.032 -275.374)" fill="#fff"/>
      <path id="Caminho_19" data-name="Caminho 19" d="M904.941,323.718a2.279,2.279,0,0,1,2.446-2.318c1.895,0,2.785,1.366,3.06,3.164h.717l.065-3.164a12.625,12.625,0,0,0-3.655-.679c-2.463,0-4.365,1.414-4.365,3.906,0,4.222,7,3.857,7,7.486a2.744,2.744,0,0,1-3.031,2.623c-2.3,0-2.956-1.6-3.465-3.742h-.741l.194,3.572a9.808,9.808,0,0,0,3.773.883c3.02,0,5.023-1.811,5.023-4.2,0-4.58-7.023-4.011-7.023-7.534" transform="translate(-770.481 -273.662)" fill="#fff"/>
    </g>
  </g>
</svg>
