<svg xmlns="http://www.w3.org/2000/svg" width="29.471" height="29.471" viewBox="0 0 29.471 29.471">
  <path id="Icon_awesome-user-circle" data-name="Icon awesome-user-circle" d="M14.735.563A14.735,14.735,0,1,0,29.471,15.3,14.733,14.733,0,0,0,14.735.563Zm0,5.7A5.229,5.229,0,1,1,9.507,11.5,5.229,5.229,0,0,1,14.735,6.267Zm0,20.439a11.386,11.386,0,0,1-8.7-4.052A6.625,6.625,0,0,1,11.883,19.1a1.454,1.454,0,0,1,.422.065,7.867,7.867,0,0,0,2.43.41,7.837,7.837,0,0,0,2.43-.41,1.454,1.454,0,0,1,.422-.065,6.625,6.625,0,0,1,5.853,3.553A11.386,11.386,0,0,1,14.735,26.706Z" transform="translate(0 -0.563)"/>
</svg>
