<svg xmlns="http://www.w3.org/2000/svg" width="22.28" height="19.495" viewBox="0 0 22.28 19.495">
  <path id="Icon_awesome-quote-left" data-name="Icon awesome-quote-left" d="M20.191,12H16.71V9.212a2.788,2.788,0,0,1,2.785-2.785h.348a1.042,1.042,0,0,0,1.044-1.044V3.294A1.042,1.042,0,0,0,19.843,2.25h-.348a6.96,6.96,0,0,0-6.962,6.962V19.656a2.089,2.089,0,0,0,2.089,2.089h5.57a2.089,2.089,0,0,0,2.089-2.089v-5.57A2.089,2.089,0,0,0,20.191,12ZM7.659,12H4.177V9.212A2.788,2.788,0,0,1,6.962,6.427H7.31A1.042,1.042,0,0,0,8.355,5.383V3.294A1.042,1.042,0,0,0,7.31,2.25H6.962A6.96,6.96,0,0,0,0,9.212V19.656a2.089,2.089,0,0,0,2.089,2.089h5.57a2.089,2.089,0,0,0,2.089-2.089v-5.57A2.089,2.089,0,0,0,7.659,12Z" transform="translate(0 -2.25)" fill="#a20000"/>
</svg>
