<svg xmlns="http://www.w3.org/2000/svg" width="22.21" height="19.591" viewBox="0 0 22.21 19.591">
  <path id="Icon_awesome-quote-right" data-name="Icon awesome-quote-right" d="M20.128,2.25H14.575a2.091,2.091,0,0,0-2.082,2.1v5.6a2.091,2.091,0,0,0,2.082,2.1h3.47v2.8a2.79,2.79,0,0,1-2.776,2.8h-.347a1.043,1.043,0,0,0-1.041,1.05v2.1a1.043,1.043,0,0,0,1.041,1.05h.347a6.967,6.967,0,0,0,6.941-7V4.349A2.091,2.091,0,0,0,20.128,2.25Zm-12.493,0H2.082A2.091,2.091,0,0,0,0,4.349v5.6a2.091,2.091,0,0,0,2.082,2.1h3.47v2.8a2.79,2.79,0,0,1-2.776,2.8H2.429a1.043,1.043,0,0,0-1.041,1.05v2.1a1.043,1.043,0,0,0,1.041,1.05h.347a6.967,6.967,0,0,0,6.941-7V4.349A2.091,2.091,0,0,0,7.635,2.25Z" transform="translate(0 -2.25)" fill="#a20000"/>
</svg>
