<svg xmlns="http://www.w3.org/2000/svg" width="53" height="53" viewBox="0 0 53 53">
  <g id="Grupo_104" data-name="Grupo 104" transform="translate(-273 -2369)">
    <g id="Grupo_70" data-name="Grupo 70" transform="translate(0 641)">
      <g id="Retângulo_53" data-name="Retângulo 53" transform="translate(273 1728)" fill="none" stroke="#a20000" stroke-width="1">
        <rect width="53" height="53" stroke="none"/>
        <rect x="0.5" y="0.5" width="52" height="52" fill="none"/>
      </g>
      <g id="noun-arrow-2094744" transform="translate(292.891 1741.997)">
        <path id="Caminho_80" data-name="Caminho 80" d="M201.951,24.426a.709.709,0,0,0,.5.21.685.685,0,0,0,.5-.21l11.785-11.785a.7.7,0,0,0,0-1L202.951-.146a.707.707,0,1,0-1,1l11.285,11.287L201.951,23.426a.7.7,0,0,0,0,1Z" transform="translate(-201.727 0.37)" fill="#a20000"/>
      </g>
    </g>
  </g>
</svg>
