<svg xmlns="http://www.w3.org/2000/svg" width="340.541" height="773.599" viewBox="0 0 340.541 773.599">
  <g id="Grupo_74" data-name="Grupo 74" transform="translate(-2425.733 -1805.52)" opacity="0.18">
    <path id="Caminho_21" data-name="Caminho 21" d="M159.475,387.688l.078.1c10.681,6.551,24.152,14.869,39.3,23.385a2.255,2.255,0,0,0,.453-.314c7.749,4.408,15.834,8.557,23.78,12.471,58.885,29.877,114.41,58.04,114.41,116.77a80.069,80.069,0,0,1-11.329,41.756c16.757,10.836,31.528,20.611,41.951,27.987,26.2-26.434,41.637-60.755,41.637-100.485,0-39.63-14.986-68.5-36.659-91.417-13.454-13.61-27.242-24.035-41.481-33.515.295.139-.55,0,0,0-19.708-12.488-40.831-22.932-61.522-33.062C213.819,323.59,160.7,297.806,160.7,242.381c0-45.375,33.593-77.178,81.759-77.178,71.711,0,95.766,58.729,103.22,107.9l.726,4.347h34.755l2.438-120.919-3.5-1.181C347.4,144,293.4,131.02,248.985,131.02c-95.608,0-159.843,57.823-159.843,143.537,0,53.952,30.386,86.934,70.333,113.131" transform="translate(2356.023 1675)" fill="none" stroke="#fff" stroke-width="1"/>
    <path id="Caminho_22" data-name="Caminho 22" d="M410.584,583.137c0-43.329-17.643-74.207-43.093-98.123-11.859-8.282-40.792-28.285-72.968-47.951-8.065-4.191-15.814-8.36-23.407-12.076-56.289-27.437-109.688-53.715-109.688-108.865a77.666,77.666,0,0,1,13.374-44.41c-17.838-10.442-32.61-19.589-40.95-24.761a129.8,129.8,0,0,0-41.99,82.034h-.178v.256c-.628,6.275-1.632,12.451-1.632,19.158,0,80.738,68.09,115.255,133.86,148.829,58.868,29.6,114.193,58.1,114.193,116.653,0,51.667-42.009,87.581-102.412,87.581-73.3,0-97.965-45.178-117.615-128.57l-1.12-3.8H81.379l7.315,135.141,2.912,1.22c33.3,14.475,84,31.784,135.788,31.784,106.169,0,183.189-64.729,183.189-154.1" transform="translate(2344.882 1841.381)" fill="none" stroke="#fff" stroke-width="1"/>
  </g>
</svg>
